# xmcd
#
# Track frame offsets:
#	182
#	16520
#	33157
#	50517
#	66792
#	82547
#	96037
#	114177
#	130427
#	145962
#	162682
#	179507
#
# Disc length: 2606 seconds
#
# Revision: 0
# Processed by: cddbd v1.5.1PL2 Copyright (c) Steve Scherf et al.
# Submitted via: EasyCDDAExtractor 8.0.1.1
#
DISCID=930a2c0c
DTITLE=Burt Blanca - Spanish love
DYEAR=1900
DGENRE=Ballad
TTITLE0=Frédéric
TTITLE1=Les soirs de Bilbao
TTITLE2=Brasiliana
TTITLE3=La playa
TTITLE4=Spanish love
TTITLE5=Que chevere que cha
TTITLE6=Ensemble
TTITLE7=Vis ta vie
TTITLE8=Amigo
TTITLE9=On n'oublie pas
TTITLE10=Solo senza te
TTITLE11=Reviens
EXTD=
EXTT0=
EXTT1=
EXTT2=
EXTT3=
EXTT4=
EXTT5=
EXTT6=
EXTT7=
EXTT8=
EXTT9=
EXTT10=
EXTT11=
PLAYORDER=
